<svg xmlns="http://www.w3.org/2000/svg" viewBox="0 0 334.8 334.8"><path d="M303.6 264.6c-46.6 65.5-133.3 88.5-206.3 54.8l-2.2-8c6.8 3.4 13.8 6.3 21.1 8.7 20 6.7 41.2 9.3 62.2 7.8 31.3-2.2 61.3-13.4 86.3-32.3 14.3-10.8 26.7-24 36.7-38.9l2.2 7.9zm16.8-29.4l-2.6-9.7c1-2.6 2-5.3 2.9-8 6.7-20 9.3-41.2 7.8-62.2C326.3 124 315.1 94 296.2 69c-6.4-8.5-13.6-16.3-21.6-23.3-2.1-1.9-4.3-3.7-6.5-5.5l-2.2-8.1c4.4 3.2 8.6 6.6 12.6 10.1 16.3 14.5 29.7 32.1 39.2 51.7 14.2 29.2 19.7 61.9 15.7 94.1-1.4 10.9-3.8 21.7-7.3 32.1-1.6 5.1-3.5 10.2-5.7 15.1zM238.5 21.5c-6.6-3.2-13.3-6-20.3-8.3-20-6.7-41.2-9.3-62.2-7.8-31.3 2.2-61.3 13.4-86.3 32.3-13.6 10.2-25.5 22.6-35.2 36.6l-7.5 2c4.6-7.1 9.7-13.8 15.3-20.1C56.8 39.8 74.3 26.5 94 17c29.2-14.2 61.9-19.7 94.1-15.7 16.8 2.1 33.3 6.7 48.7 13.8l1.7 6.4zM68.1 302.1c-4.1-3-8.1-6.2-11.9-9.6C39.8 278 26.5 260.4 17 240.8 2.7 211.6-2.7 178.9 1.3 146.7c1.4-10.9 3.8-21.7 7.3-32.1 1.1-3.2 2.3-6.5 3.6-9.7l6.4-1.7c-1.7 4.1-3.3 8.3-4.7 12.4-6.7 20-9.3 41.2-7.8 62.2 2.2 31.3 13.4 61.3 32.3 86.3 6.4 8.5 13.6 16.3 21.6 23.3 1.8 1.6 3.7 3.2 5.6 4.8l2.5 9.9z" fill="#99d5c5"/></svg>