<svg xmlns="http://www.w3.org/2000/svg" viewBox="0 0 216.013 948.936"><defs><style>.a{fill:none;stroke:#99d5c5;stroke-width:2px;}.b{fill:#99d5c5;}</style></defs><g transform="translate(-1042 -722.615)"><path class="a" d="M209.094-76.69,0,139.6,105.2,244.8,63.5,286.5,169.3,392.2,68.2,493.3l33.4,33.3L78.1,550l59.4,59.4L11.5,735.5,207.3,870.728" transform="translate(1048.2 800)"/><circle class="b" cx="8" cy="8" r="8" transform="translate(1042 931)"/><path class="b" d="M8,0A8,8,0,1,1,0,8,8,8,0,0,1,8,0Z" transform="translate(1145 1036)"/><circle class="b" cx="8" cy="8" r="8" transform="translate(1104 1078)"/><circle class="b" cx="8" cy="8" r="8" transform="translate(1208 1184)"/><circle class="b" cx="8" cy="8" r="8" transform="translate(1108 1285)"/><circle class="b" cx="8" cy="8" r="8" transform="translate(1143 1319)"/><circle class="b" cx="8" cy="8" r="8" transform="translate(1116 1342)"/><circle class="b" cx="8" cy="8" r="8" transform="translate(1179 1401)"/><circle class="b" cx="8" cy="8" r="8" transform="translate(1052 1527)"/></g></svg>